<svg xmlns="http://www.w3.org/2000/svg" xmlns:xlink="http://www.w3.org/1999/xlink" version="1.0" x="0px" y="0px" viewBox="0 0 100 125" enable-background="new 0 0 100 100" xml:space="preserve"><path d="M77.755127,8.1078491H22.2449951c-4.3256836,0-7.8648682,3.5391846-7.8648682,7.8648682v60.7040405  c0,3.8673706,2.831543,7.0979614,6.5223389,7.7408447v2.9157104c0,3.666687,3,6.666687,6.666687,6.666687  s6.666687-3,6.666687-6.666687v-2.791687h31.5285034v2.791687c0,3.666687,3,6.666687,6.666626,6.666687  c3.666687,0,6.666687-3,6.666687-6.666687v-2.9157104c3.6907959-0.6428833,6.5223389-3.8734741,6.5223389-7.7408447V15.9727173  C85.6199951,11.6470337,82.0808105,8.1078491,77.755127,8.1078491z M27.5691528,75  c-2.5773315,0-4.666687-2.0893555-4.666687-4.666687s2.0893555-4.666687,4.666687-4.666687s4.666687,2.0893555,4.666687,4.666687  S30.1464844,75,27.5691528,75z M72.4309692,75c-2.5773315,0-4.666626-2.0893555-4.666626-4.666687  s2.0892944-4.666687,4.666626-4.666687s4.666687,2.0893555,4.666687,4.666687S75.0083008,75,72.4309692,75z M79.0976562,56.5  H20.9024658V17.5587769c0-1.1234741,0.9108276-2.0343018,2.0343018-2.0343018h54.1265869  c1.1235352,0,2.0343018,0.9108276,2.0343018,2.0343018V56.5z"/><path d="M66.2668457,20.2167358c-5.6985474,5.5980835-16.2463989,3.1710205-23.4453735,5.2171631  c-4.6498413,1.3216553-7.5665283,4.9290161-8.496521,9.2623901c-0.2423096,1.1289062,1.2084961,1.8169556,1.9368286,0.9210205  c6.6538696-8.1850586,19.4801636-4.4622192,27.7804565-11.3817749c-7.3961792,7.6123047-20.5737305,5.8949585-26.9295654,14.4567261  c-1.7895508,2.4105225-3.4122925,6.5247803-3.6124878,10.5063477c0,0-0.1226807,1.8341064,0.8796997,3.5981445  c0.5679321,0.9994507,2.1004639,0.5316772,2.0532837-0.6169434c-0.0899048-2.1886597,0.0062866-4.7854004,0.8294067-6.2109985  c0.2091675-0.3621216,0.6193237-0.5535278,1.0358276-0.5161133c1.7904053,0.1609497,7.2720337,0.5139771,11.6278687-0.6876221  C61.4059448,41.5982666,66.53479,32.0331421,68.1221924,21.1766357  C68.2747192,20.1333008,67.019043,19.4777832,66.2668457,20.2167358z"/><text x="0" y="115" fill="#000000" font-size="5px" font-weight="bold" font-family="'Helvetica Neue', Helvetica, Arial-Unicode, Arial, Sans-serif">Created by Alexander Skowalsky</text><text x="0" y="120" fill="#000000" font-size="5px" font-weight="bold" font-family="'Helvetica Neue', Helvetica, Arial-Unicode, Arial, Sans-serif">from the Noun Project</text></svg>